<svg width="1280" height="211" viewBox="0 0 1280 211" fill="none" xmlns="http://www.w3.org/2000/svg">
<g clip-path="url(#clip0_0_1)">
<path d="M15.3622 166.1C15.3622 167.766 15.0465 169.183 14.4151 170.351C13.7887 171.519 12.9336 172.412 11.8498 173.028C10.771 173.64 9.55788 173.945 8.21058 173.945C6.85334 173.945 5.6353 173.637 4.55646 173.021C3.47763 172.404 2.625 171.512 1.99858 170.343C1.37216 169.175 1.05895 167.761 1.05895 166.1C1.05895 164.435 1.37216 163.018 1.99858 161.849C2.625 160.681 3.47763 159.791 4.55646 159.18C5.6353 158.563 6.85334 158.255 8.21058 158.255C9.55788 158.255 10.771 158.563 11.8498 159.18C12.9336 159.791 13.7887 160.681 14.4151 161.849C15.0465 163.018 15.3622 164.435 15.3622 166.1ZM12.0884 166.1C12.0884 165.021 11.9268 164.112 11.6037 163.371C11.2855 162.63 10.8356 162.068 10.2539 161.685C9.67223 161.303 8.99112 161.111 8.21058 161.111C7.43004 161.111 6.74893 161.303 6.16726 161.685C5.58558 162.068 5.13317 162.63 4.81001 163.371C4.49183 164.112 4.33274 165.021 4.33274 166.1C4.33274 167.179 4.49183 168.089 4.81001 168.83C5.13317 169.57 5.58558 170.132 6.16726 170.515C6.74893 170.898 7.43004 171.089 8.21058 171.089C8.99112 171.089 9.67223 170.898 10.2539 170.515C10.8356 170.132 11.2855 169.57 11.6037 168.83C11.9268 168.089 12.0884 167.179 12.0884 166.1ZM20.8714 167.114V173.737H17.6945V162.282H20.7222V164.303H20.8564C21.11 163.637 21.5351 163.11 22.1317 162.722C22.7282 162.329 23.4516 162.133 24.3018 162.133C25.0972 162.133 25.7907 162.307 26.3824 162.655C26.974 163.003 27.4339 163.5 27.762 164.146C28.0901 164.788 28.2542 165.553 28.2542 166.443V173.737H25.0773V167.01C25.0823 166.309 24.9033 165.762 24.5404 165.369C24.1775 164.972 23.6778 164.773 23.0415 164.773C22.6139 164.773 22.2361 164.865 21.9079 165.049C21.5848 165.233 21.3312 165.501 21.1473 165.854C20.9683 166.202 20.8763 166.622 20.8714 167.114ZM30.8176 173.737V158.464H33.9945V164.206H34.0914C34.2306 163.898 34.432 163.585 34.6955 163.266C34.964 162.943 35.312 162.675 35.7395 162.461C36.1721 162.242 36.709 162.133 37.3503 162.133C38.1855 162.133 38.9561 162.352 39.6621 162.789C40.3681 163.222 40.9324 163.875 41.3549 164.75C41.7775 165.62 41.9888 166.712 41.9888 168.024C41.9888 169.302 41.7825 170.381 41.3699 171.261C40.9622 172.136 40.4054 172.799 39.6994 173.252C38.9984 173.699 38.2129 173.923 37.3429 173.923C36.7264 173.923 36.2019 173.821 35.7694 173.617C35.3418 173.413 34.9913 173.157 34.7179 172.849C34.4444 172.536 34.2356 172.22 34.0914 171.902H33.9498V173.737H30.8176ZM33.9274 168.009C33.9274 168.69 34.0218 169.285 34.2108 169.792C34.3997 170.299 34.6731 170.694 35.0311 170.977C35.389 171.256 35.824 171.395 36.3361 171.395C36.8532 171.395 37.2907 171.253 37.6486 170.97C38.0066 170.682 38.2775 170.284 38.4615 169.777C38.6504 169.265 38.7449 168.675 38.7449 168.009C38.7449 167.348 38.6529 166.766 38.4689 166.264C38.285 165.762 38.014 165.369 37.6561 165.086C37.2981 164.803 36.8581 164.661 36.3361 164.661C35.8191 164.661 35.3816 164.798 35.0236 165.071C34.6706 165.345 34.3997 165.732 34.2108 166.234C34.0218 166.737 33.9274 167.328 33.9274 168.009ZM49.284 173.96C48.1256 173.96 47.1238 173.714 46.2787 173.222C45.4385 172.725 44.7897 172.034 44.3323 171.149C43.8749 170.259 43.6462 169.227 43.6462 168.054C43.6462 166.871 43.8749 165.837 44.3323 164.952C44.7897 164.062 45.4385 163.371 46.2787 162.879C47.1238 162.381 48.1256 162.133 49.284 162.133C50.4424 162.133 51.4417 162.381 52.2819 162.879C53.127 163.371 53.7783 164.062 54.2357 164.952C54.6931 165.837 54.9218 166.871 54.9218 168.054C54.9218 169.227 54.6931 170.259 54.2357 171.149C53.7783 172.034 53.127 172.725 52.2819 173.222C51.4417 173.714 50.4424 173.96 49.284 173.96ZM49.2989 171.499C49.8259 171.499 50.2659 171.35 50.6189 171.052C50.9719 170.749 51.2378 170.336 51.4168 169.814C51.6008 169.292 51.6927 168.698 51.6927 168.032C51.6927 167.365 51.6008 166.771 51.4168 166.249C51.2378 165.727 50.9719 165.315 50.6189 165.011C50.2659 164.708 49.8259 164.557 49.2989 164.557C48.767 164.557 48.3195 164.708 47.9566 165.011C47.5986 165.315 47.3277 165.727 47.1437 166.249C46.9648 166.771 46.8753 167.365 46.8753 168.032C46.8753 168.698 46.9648 169.292 47.1437 169.814C47.3277 170.336 47.5986 170.749 47.9566 171.052C48.3195 171.35 48.767 171.499 49.2989 171.499ZM60.2538 173.953C59.523 173.953 58.8717 173.826 58.3 173.573C57.7282 173.314 57.2758 172.934 56.9427 172.432C56.6146 171.924 56.4506 171.293 56.4506 170.537C56.4506 169.901 56.5674 169.367 56.801 168.934C57.0347 168.501 57.3529 168.153 57.7556 167.89C58.1583 167.626 58.6157 167.428 59.1278 167.293C59.6448 167.159 60.1867 167.065 60.7535 167.01C61.4197 166.94 61.9566 166.876 62.3643 166.816C62.7719 166.751 63.0677 166.657 63.2517 166.533C63.4356 166.408 63.5276 166.224 63.5276 165.981V165.936C63.5276 165.464 63.3785 165.098 63.0802 164.84C62.7868 164.581 62.3692 164.452 61.8273 164.452C61.2556 164.452 60.8007 164.579 60.4626 164.832C60.1246 165.081 59.9008 165.394 59.7915 165.772L56.8532 165.533C57.0024 164.837 57.2957 164.236 57.7332 163.729C58.1707 163.217 58.735 162.824 59.426 162.55C60.1221 162.272 60.9275 162.133 61.8422 162.133C62.4786 162.133 63.0876 162.207 63.6693 162.357C64.2559 162.506 64.7755 162.737 65.2279 163.05C65.6853 163.363 66.0457 163.766 66.3092 164.258C66.5727 164.745 66.7045 165.33 66.7045 166.011V173.737H63.6917V172.148H63.6022C63.4182 172.506 63.1721 172.822 62.8639 173.095C62.5557 173.364 62.1853 173.575 61.7528 173.729C61.3202 173.878 60.8206 173.953 60.2538 173.953ZM61.1636 171.76C61.6309 171.76 62.0436 171.668 62.4015 171.484C62.7595 171.296 63.0404 171.042 63.2442 170.724C63.4481 170.406 63.55 170.045 63.55 169.642V168.427C63.4506 168.492 63.3138 168.551 63.1398 168.606C62.9708 168.656 62.7794 168.703 62.5656 168.748C62.3518 168.787 62.1381 168.825 61.9243 168.859C61.7105 168.889 61.5166 168.917 61.3426 168.941C60.9697 168.996 60.6441 169.083 60.3657 169.202C60.0873 169.322 59.871 169.483 59.7169 169.687C59.5628 169.886 59.4857 170.135 59.4857 170.433C59.4857 170.865 59.6423 171.196 59.9555 171.425C60.2737 171.649 60.6764 171.76 61.1636 171.76ZM69.1691 173.737V162.282H72.249V164.281H72.3683C72.5771 163.57 72.9276 163.033 73.4198 162.67C73.912 162.302 74.4788 162.118 75.1201 162.118C75.2792 162.118 75.4507 162.128 75.6347 162.148C75.8186 162.168 75.9802 162.195 76.1194 162.23V165.049C75.9703 165.004 75.7639 164.964 75.5004 164.929C75.2369 164.895 74.9958 164.877 74.7771 164.877C74.3097 164.877 73.8921 164.979 73.5242 165.183C73.1613 165.382 72.873 165.66 72.6592 166.018C72.4504 166.376 72.346 166.789 72.346 167.256V173.737H69.1691ZM81.4496 173.923C80.5795 173.923 79.7915 173.699 79.0856 173.252C78.3846 172.799 77.8278 172.136 77.4151 171.261C77.0075 170.381 76.8036 169.302 76.8036 168.024C76.8036 166.712 77.0149 165.62 77.4375 164.75C77.8601 163.875 78.4219 163.222 79.1229 162.789C79.8288 162.352 80.6019 162.133 81.4421 162.133C82.0835 162.133 82.6179 162.242 83.0455 162.461C83.478 162.675 83.826 162.943 84.0895 163.266C84.358 163.585 84.5618 163.898 84.701 164.206H84.7979V158.464H87.9673V173.737H84.8352V171.902H84.701C84.5518 172.22 84.3406 172.536 84.0671 172.849C83.7987 173.157 83.4482 173.413 83.0156 173.617C82.5881 173.821 82.0661 173.923 81.4496 173.923ZM82.4563 171.395C82.9684 171.395 83.4009 171.256 83.7539 170.977C84.1119 170.694 84.3853 170.299 84.5742 169.792C84.7681 169.285 84.8651 168.69 84.8651 168.009C84.8651 167.328 84.7706 166.737 84.5817 166.234C84.3928 165.732 84.1193 165.345 83.7614 165.071C83.4034 164.798 82.9684 164.661 82.4563 164.661C81.9343 164.661 81.4943 164.803 81.1364 165.086C80.7784 165.369 80.5075 165.762 80.3235 166.264C80.1396 166.766 80.0476 167.348 80.0476 168.009C80.0476 168.675 80.1396 169.265 80.3235 169.777C80.5124 170.284 80.7834 170.682 81.1364 170.97C81.4943 171.253 81.9343 171.395 82.4563 171.395ZM100.615 173.96C99.4567 173.96 98.4549 173.714 97.6097 173.222C96.7695 172.725 96.1207 172.034 95.6634 171.149C95.206 170.259 94.9773 169.227 94.9773 168.054C94.9773 166.871 95.206 165.837 95.6634 164.952C96.1207 164.062 96.7695 163.371 97.6097 162.879C98.4549 162.381 99.4567 162.133 100.615 162.133C101.773 162.133 102.773 162.381 103.613 162.879C104.458 163.371 105.109 164.062 105.567 164.952C106.024 165.837 106.253 166.871 106.253 168.054C106.253 169.227 106.024 170.259 105.567 171.149C105.109 172.034 104.458 172.725 103.613 173.222C102.773 173.714 101.773 173.96 100.615 173.96ZM100.63 171.499C101.157 171.499 101.597 171.35 101.95 171.052C102.303 170.749 102.569 170.336 102.748 169.814C102.932 169.292 103.024 168.698 103.024 168.032C103.024 167.365 102.932 166.771 102.748 166.249C102.569 165.727 102.303 165.315 101.95 165.011C101.597 164.708 101.157 164.557 100.63 164.557C100.098 164.557 99.6506 164.708 99.2876 165.011C98.9297 165.315 98.6587 165.727 98.4748 166.249C98.2958 166.771 98.2063 167.365 98.2063 168.032C98.2063 168.698 98.2958 169.292 98.4748 169.814C98.6587 170.336 98.9297 170.749 99.2876 171.052C99.6506 171.35 100.098 171.499 100.63 171.499ZM111.495 167.114V173.737H108.319V162.282H111.346V164.303H111.48C111.734 163.637 112.159 163.11 112.756 162.722C113.352 162.329 114.076 162.133 114.926 162.133C115.721 162.133 116.415 162.307 117.006 162.655C117.598 163.003 118.058 163.5 118.386 164.146C118.714 164.788 118.878 165.553 118.878 166.443V173.737H115.701V167.01C115.706 166.309 115.527 165.762 115.164 165.369C114.801 164.972 114.302 164.773 113.665 164.773C113.238 164.773 112.86 164.865 112.532 165.049C112.209 165.233 111.955 165.501 111.771 165.854C111.592 166.202 111.5 166.622 111.495 167.114ZM127.475 162.282V164.668H120.577V162.282H127.475ZM122.143 159.538H125.32V170.217C125.32 170.51 125.364 170.739 125.454 170.903C125.543 171.062 125.668 171.174 125.827 171.238C125.991 171.303 126.18 171.335 126.393 171.335C126.543 171.335 126.692 171.323 126.841 171.298C126.99 171.268 127.104 171.246 127.184 171.231L127.684 173.595C127.524 173.645 127.301 173.702 127.012 173.766C126.724 173.836 126.373 173.878 125.961 173.893C125.195 173.923 124.524 173.821 123.947 173.587C123.376 173.354 122.931 172.991 122.612 172.499C122.294 172.006 122.138 171.385 122.143 170.634V159.538ZM134.597 173.96C133.438 173.96 132.436 173.714 131.591 173.222C130.751 172.725 130.102 172.034 129.645 171.149C129.187 170.259 128.959 169.227 128.959 168.054C128.959 166.871 129.187 165.837 129.645 164.952C130.102 164.062 130.751 163.371 131.591 162.879C132.436 162.381 133.438 162.133 134.597 162.133C135.755 162.133 136.754 162.381 137.594 162.879C138.44 163.371 139.091 164.062 139.548 164.952C140.006 165.837 140.234 166.871 140.234 168.054C140.234 169.227 140.006 170.259 139.548 171.149C139.091 172.034 138.44 172.725 137.594 173.222C136.754 173.714 135.755 173.96 134.597 173.96ZM134.611 171.499C135.138 171.499 135.578 171.35 135.931 171.052C136.284 170.749 136.55 170.336 136.729 169.814C136.913 169.292 137.005 168.698 137.005 168.032C137.005 167.365 136.913 166.771 136.729 166.249C136.55 165.727 136.284 165.315 135.931 165.011C135.578 164.708 135.138 164.557 134.611 164.557C134.079 164.557 133.632 164.708 133.269 165.011C132.911 165.315 132.64 165.727 132.456 166.249C132.277 166.771 132.188 167.365 132.188 168.032C132.188 168.698 132.277 169.292 132.456 169.814C132.64 170.336 132.911 170.749 133.269 171.052C133.632 171.35 134.079 171.499 134.611 171.499ZM6.44318 198.96C5.2848 198.96 4.28303 198.714 3.43786 198.222C2.59766 197.725 1.94886 197.034 1.49148 196.149C1.03409 195.259 0.805398 194.227 0.805398 193.054C0.805398 191.871 1.03409 190.837 1.49148 189.952C1.94886 189.062 2.59766 188.371 3.43786 187.879C4.28303 187.381 5.2848 187.133 6.44318 187.133C7.60156 187.133 8.60085 187.381 9.44105 187.879C10.2862 188.371 10.9375 189.062 11.3949 189.952C11.8523 190.837 12.081 191.871 12.081 193.054C12.081 194.227 11.8523 195.259 11.3949 196.149C10.9375 197.034 10.2862 197.725 9.44105 198.222C8.60085 198.714 7.60156 198.96 6.44318 198.96ZM6.4581 196.499C6.98509 196.499 7.42507 196.35 7.77805 196.052C8.13104 195.749 8.39702 195.336 8.57599 194.814C8.75994 194.292 8.85192 193.698 8.85192 193.032C8.85192 192.365 8.75994 191.771 8.57599 191.249C8.39702 190.727 8.13104 190.315 7.77805 190.011C7.42507 189.708 6.98509 189.557 6.4581 189.557C5.92614 189.557 5.47869 189.708 5.11577 190.011C4.75781 190.315 4.48686 190.727 4.30291 191.249C4.12393 191.771 4.03445 192.365 4.03445 193.032C4.03445 193.698 4.12393 194.292 4.30291 194.814C4.48686 195.336 4.75781 195.749 5.11577 196.052C5.47869 196.35 5.92614 196.499 6.4581 196.499ZM21.4922 193.859V187.282H24.669V198.737H21.619V196.656H21.4996C21.2411 197.327 20.8111 197.867 20.2095 198.274C19.6129 198.682 18.8846 198.886 18.0245 198.886C17.2589 198.886 16.5852 198.712 16.0036 198.364C15.4219 198.016 14.967 197.521 14.6388 196.88C14.3157 196.238 14.1516 195.47 14.1467 194.575V187.282H17.3235V194.009C17.3285 194.685 17.5099 195.219 17.8679 195.612C18.2259 196.005 18.7056 196.201 19.3072 196.201C19.69 196.201 20.0479 196.114 20.381 195.94C20.7141 195.761 20.9826 195.498 21.1864 195.15C21.3952 194.802 21.4972 194.372 21.4922 193.859ZM27.2101 198.737V187.282H30.29V189.281H30.4094C30.6182 188.57 30.9687 188.033 31.4608 187.67C31.953 187.302 32.5198 187.118 33.1611 187.118C33.3202 187.118 33.4917 187.128 33.6757 187.148C33.8596 187.168 34.0212 187.195 34.1604 187.23V190.049C34.0113 190.004 33.805 189.964 33.5415 189.929C33.278 189.895 33.0368 189.877 32.8181 189.877C32.3508 189.877 31.9331 189.979 31.5653 190.183C31.2023 190.382 30.914 190.66 30.7002 191.018C30.4914 191.376 30.387 191.789 30.387 192.256V198.737H27.2101ZM50.1938 190.548L47.2854 190.727C47.2357 190.479 47.1288 190.255 46.9648 190.056C46.8007 189.852 46.5844 189.691 46.316 189.571C46.0525 189.447 45.7368 189.385 45.3689 189.385C44.8767 189.385 44.4616 189.489 44.1235 189.698C43.7854 189.902 43.6164 190.175 43.6164 190.519C43.6164 190.792 43.7258 191.023 43.9445 191.212C44.1633 191.401 44.5386 191.553 45.0706 191.667L47.1437 192.085C48.2574 192.313 49.0876 192.681 49.6345 193.188C50.1814 193.695 50.4548 194.362 50.4548 195.187C50.4548 195.938 50.2336 196.596 49.7911 197.163C49.3536 197.73 48.752 198.172 47.9864 198.49C47.2258 198.804 46.3483 198.96 45.354 198.96C43.8376 198.96 42.6295 198.645 41.7297 198.013C40.8348 197.377 40.3103 196.512 40.1562 195.418L43.2808 195.254C43.3753 195.716 43.604 196.069 43.9669 196.313C44.3298 196.552 44.7947 196.671 45.3614 196.671C45.9182 196.671 46.3657 196.564 46.7037 196.35C47.0468 196.131 47.2208 195.851 47.2258 195.508C47.2208 195.219 47.099 194.983 46.8604 194.799C46.6217 194.61 46.2538 194.466 45.7567 194.367L43.773 193.971C42.6544 193.748 41.8216 193.36 41.2748 192.808C40.7329 192.256 40.4619 191.553 40.4619 190.698C40.4619 189.962 40.6608 189.328 41.0585 188.796C41.4612 188.264 42.0255 187.854 42.7513 187.565C43.4822 187.277 44.3373 187.133 45.3167 187.133C46.7634 187.133 47.9019 187.439 48.7322 188.05C49.5674 188.662 50.0546 189.494 50.1938 190.548ZM54.4165 203.032C54.0138 203.032 53.636 203 53.283 202.935C52.935 202.875 52.6467 202.798 52.418 202.704L53.1339 200.332C53.5067 200.447 53.8423 200.509 54.1406 200.519C54.4439 200.529 54.7049 200.459 54.9237 200.31C55.1474 200.161 55.3288 199.907 55.468 199.549L55.6545 199.065L51.5455 187.282H54.8864L57.2578 195.694H57.3771L59.771 187.282H63.1342L58.6822 199.974C58.4684 200.591 58.1776 201.128 57.8097 201.585C57.4467 202.048 56.9869 202.403 56.43 202.652C55.8732 202.905 55.2021 203.032 54.4165 203.032ZM74.2905 190.548L71.3821 190.727C71.3324 190.479 71.2255 190.255 71.0614 190.056C70.8974 189.852 70.6811 189.691 70.4126 189.571C70.1491 189.447 69.8335 189.385 69.4656 189.385C68.9734 189.385 68.5582 189.489 68.2202 189.698C67.8821 189.902 67.7131 190.175 67.7131 190.519C67.7131 190.792 67.8224 191.023 68.0412 191.212C68.2599 191.401 68.6353 191.553 69.1673 191.667L71.2404 192.085C72.354 192.313 73.1843 192.681 73.7312 193.188C74.2781 193.695 74.5515 194.362 74.5515 195.187C74.5515 195.938 74.3303 196.596 73.8878 197.163C73.4503 197.73 72.8487 198.172 72.0831 198.49C71.3224 198.804 70.445 198.96 69.4506 198.96C67.9343 198.96 66.7262 198.645 65.8263 198.013C64.9315 197.377 64.407 196.512 64.2528 195.418L67.3775 195.254C67.4719 195.716 67.7006 196.069 68.0636 196.313C68.4265 196.552 68.8913 196.671 69.4581 196.671C70.0149 196.671 70.4624 196.564 70.8004 196.35C71.1435 196.131 71.3175 195.851 71.3224 195.508C71.3175 195.219 71.1957 194.983 70.957 194.799C70.7184 194.61 70.3505 194.466 69.8533 194.367L67.8697 193.971C66.7511 193.748 65.9183 193.36 65.3714 192.808C64.8295 192.256 64.5586 191.553 64.5586 190.698C64.5586 189.962 64.7575 189.328 65.1552 188.796C65.5579 188.264 66.1222 187.854 66.848 187.565C67.5788 187.277 68.4339 187.133 69.4134 187.133C70.8601 187.133 71.9986 187.439 72.8288 188.05C73.6641 188.662 74.1513 189.494 74.2905 190.548ZM82.6446 187.282V189.668H75.7465V187.282H82.6446ZM77.3126 184.538H80.4894V195.217C80.4894 195.51 80.5342 195.739 80.6237 195.903C80.7132 196.062 80.8374 196.174 80.9965 196.238C81.1606 196.303 81.3495 196.335 81.5633 196.335C81.7124 196.335 81.8616 196.323 82.0107 196.298C82.1599 196.268 82.2742 196.246 82.3538 196.231L82.8534 198.595C82.6943 198.645 82.4706 198.702 82.1823 198.766C81.8939 198.836 81.5434 198.878 81.1308 198.893C80.3651 198.923 79.694 198.821 79.1173 198.587C78.5455 198.354 78.1006 197.991 77.7824 197.499C77.4642 197.006 77.3076 196.385 77.3126 195.634V184.538ZM89.8112 198.96C88.6329 198.96 87.6187 198.722 86.7686 198.244C85.9234 197.762 85.2721 197.081 84.8147 196.201C84.3573 195.316 84.1286 194.27 84.1286 193.062C84.1286 191.883 84.3573 190.849 84.8147 189.959C85.2721 189.069 85.9159 188.376 86.7462 187.879C87.5814 187.381 88.5608 187.133 89.6844 187.133C90.4401 187.133 91.1436 187.255 91.7948 187.498C92.4511 187.737 93.0228 188.097 93.51 188.58C94.0022 189.062 94.385 189.668 94.6585 190.399C94.9319 191.125 95.0686 191.975 95.0686 192.95V193.822H85.3964V191.853H92.0782C92.0782 191.396 91.9788 190.991 91.7799 190.638C91.5811 190.285 91.3051 190.009 90.9521 189.81C90.6041 189.606 90.199 189.504 89.7366 189.504C89.2544 189.504 88.8268 189.616 88.4539 189.84C88.086 190.059 87.7977 190.354 87.5889 190.727C87.3801 191.095 87.2732 191.505 87.2682 191.958V193.83C87.2682 194.396 87.3726 194.886 87.5814 195.299C87.7952 195.711 88.096 196.03 88.4838 196.253C88.8715 196.477 89.3314 196.589 89.8634 196.589C90.2164 196.589 90.5395 196.539 90.8328 196.44C91.1262 196.34 91.3772 196.191 91.586 195.992C91.7948 195.793 91.9539 195.55 92.0633 195.261L95.0015 195.455C94.8524 196.161 94.5466 196.778 94.0843 197.305C93.6269 197.827 93.0352 198.234 92.3094 198.528C91.5885 198.816 90.7558 198.96 89.8112 198.96ZM97.1418 198.737V187.282H100.169V189.303H100.304C100.542 188.632 100.94 188.102 101.497 187.715C102.054 187.327 102.72 187.133 103.495 187.133C104.281 187.133 104.95 187.329 105.502 187.722C106.053 188.11 106.421 188.637 106.605 189.303H106.725C106.958 188.647 107.381 188.122 107.992 187.729C108.609 187.332 109.337 187.133 110.177 187.133C111.246 187.133 112.114 187.473 112.78 188.155C113.451 188.831 113.787 189.79 113.787 191.033V198.737H110.617V191.66C110.617 191.023 110.448 190.546 110.11 190.228C109.772 189.91 109.35 189.75 108.842 189.75C108.266 189.75 107.816 189.934 107.493 190.302C107.169 190.665 107.008 191.145 107.008 191.742V198.737H103.928V191.592C103.928 191.031 103.766 190.583 103.443 190.25C103.125 189.917 102.705 189.75 102.183 189.75C101.83 189.75 101.512 189.84 101.228 190.019C100.95 190.193 100.729 190.439 100.565 190.757C100.401 191.07 100.319 191.438 100.319 191.861V198.737H97.1418Z" fill="white"/>
<path d="M289.441 158.464H293.424L297.63 168.725H297.808L302.014 158.464H305.997V173.737H302.865V163.796H302.738L298.785 173.662H296.653L292.7 163.759H292.573V173.737H289.441V158.464ZM313.773 173.96C312.615 173.96 311.613 173.714 310.768 173.222C309.927 172.725 309.279 172.034 308.821 171.149C308.364 170.259 308.135 169.227 308.135 168.054C308.135 166.871 308.364 165.837 308.821 164.952C309.279 164.062 309.927 163.371 310.768 162.879C311.613 162.381 312.615 162.133 313.773 162.133C314.931 162.133 315.931 162.381 316.771 162.879C317.616 163.371 318.267 164.062 318.725 164.952C319.182 165.837 319.411 166.871 319.411 168.054C319.411 169.227 319.182 170.259 318.725 171.149C318.267 172.034 317.616 172.725 316.771 173.222C315.931 173.714 314.931 173.96 313.773 173.96ZM313.788 171.499C314.315 171.499 314.755 171.35 315.108 171.052C315.461 170.749 315.727 170.336 315.906 169.814C316.09 169.292 316.182 168.698 316.182 168.032C316.182 167.365 316.09 166.771 315.906 166.249C315.727 165.727 315.461 165.315 315.108 165.011C314.755 164.708 314.315 164.557 313.788 164.557C313.256 164.557 312.808 164.708 312.445 165.011C312.088 165.315 311.817 165.727 311.633 166.249C311.454 166.771 311.364 167.365 311.364 168.032C311.364 168.698 311.454 169.292 311.633 169.814C311.817 170.336 312.088 170.749 312.445 171.052C312.808 171.35 313.256 171.499 313.788 171.499ZM324.653 167.114V173.737H321.476V162.282H324.504V164.303H324.638C324.892 163.637 325.317 163.11 325.914 162.722C326.51 162.329 327.233 162.133 328.084 162.133C328.879 162.133 329.573 162.307 330.164 162.655C330.756 163.003 331.216 163.5 331.544 164.146C331.872 164.788 332.036 165.553 332.036 166.443V173.737H328.859V167.01C328.864 166.309 328.685 165.762 328.322 165.369C327.959 164.972 327.46 164.773 326.823 164.773C326.396 164.773 326.018 164.865 325.69 165.049C325.367 165.233 325.113 165.501 324.929 165.854C324.75 166.202 324.658 166.622 324.653 167.114ZM334.54 173.737V162.282H337.717V173.737H334.54ZM336.136 160.805C335.663 160.805 335.258 160.649 334.92 160.336C334.587 160.017 334.421 159.637 334.421 159.195C334.421 158.757 334.587 158.382 334.92 158.069C335.258 157.75 335.663 157.591 336.136 157.591C336.608 157.591 337.011 157.75 337.344 158.069C337.682 158.382 337.851 158.757 337.851 159.195C337.851 159.637 337.682 160.017 337.344 160.336C337.011 160.649 336.608 160.805 336.136 160.805ZM346.354 162.282V164.668H339.456V162.282H346.354ZM341.022 159.538H344.199V170.217C344.199 170.51 344.244 170.739 344.333 170.903C344.423 171.062 344.547 171.174 344.706 171.238C344.87 171.303 345.059 171.335 345.273 171.335C345.422 171.335 345.571 171.323 345.72 171.298C345.869 171.268 345.984 171.246 346.063 171.231L346.563 173.595C346.404 173.645 346.18 173.702 345.892 173.766C345.604 173.836 345.253 173.878 344.84 173.893C344.075 173.923 343.404 173.821 342.827 173.587C342.255 173.354 341.81 172.991 341.492 172.499C341.174 172.006 341.017 171.385 341.022 170.634V159.538ZM353.476 173.96C352.318 173.96 351.316 173.714 350.471 173.222C349.63 172.725 348.982 172.034 348.524 171.149C348.067 170.259 347.838 169.227 347.838 168.054C347.838 166.871 348.067 165.837 348.524 164.952C348.982 164.062 349.63 163.371 350.471 162.879C351.316 162.381 352.318 162.133 353.476 162.133C354.634 162.133 355.634 162.381 356.474 162.879C357.319 163.371 357.97 164.062 358.428 164.952C358.885 165.837 359.114 166.871 359.114 168.054C359.114 169.227 358.885 170.259 358.428 171.149C357.97 172.034 357.319 172.725 356.474 173.222C355.634 173.714 354.634 173.96 353.476 173.96ZM353.491 171.499C354.018 171.499 354.458 171.35 354.811 171.052C355.164 170.749 355.43 170.336 355.609 169.814C355.793 169.292 355.885 168.698 355.885 168.032C355.885 167.365 355.793 166.771 355.609 166.249C355.43 165.727 355.164 165.315 354.811 165.011C354.458 164.708 354.018 164.557 353.491 164.557C352.959 164.557 352.512 164.708 352.149 165.011C351.791 165.315 351.52 165.727 351.336 166.249C351.157 166.771 351.067 167.365 351.067 168.032C351.067 168.698 351.157 169.292 351.336 169.814C351.52 170.336 351.791 170.749 352.149 171.052C352.512 171.35 352.959 171.499 353.491 171.499ZM361.179 173.737V162.282H364.259V164.281H364.379C364.588 163.57 364.938 163.033 365.43 162.67C365.922 162.302 366.489 162.118 367.13 162.118C367.29 162.118 367.461 162.128 367.645 162.148C367.829 162.168 367.991 162.195 368.13 162.23V165.049C367.981 165.004 367.774 164.964 367.511 164.929C367.247 164.895 367.006 164.877 366.787 164.877C366.32 164.877 365.903 164.979 365.535 165.183C365.172 165.382 364.883 165.66 364.67 166.018C364.461 166.376 364.356 166.789 364.356 167.256V173.737H361.179ZM376.594 178.032C376.191 178.032 375.813 178 375.46 177.935C375.112 177.875 374.824 177.798 374.595 177.704L375.311 175.332C375.684 175.447 376.02 175.509 376.318 175.519C376.621 175.529 376.882 175.459 377.101 175.31C377.325 175.161 377.506 174.907 377.645 174.549L377.832 174.065L373.723 162.282H377.064L379.435 170.694H379.554L381.948 162.282H385.312L380.86 174.974C380.646 175.591 380.355 176.128 379.987 176.585C379.624 177.048 379.164 177.403 378.607 177.652C378.051 177.905 377.379 178.032 376.594 178.032ZM391.744 173.96C390.585 173.96 389.583 173.714 388.738 173.222C387.898 172.725 387.249 172.034 386.792 171.149C386.335 170.259 386.106 169.227 386.106 168.054C386.106 166.871 386.335 165.837 386.792 164.952C387.249 164.062 387.898 163.371 388.738 162.879C389.583 162.381 390.585 162.133 391.744 162.133C392.902 162.133 393.901 162.381 394.741 162.879C395.587 163.371 396.238 164.062 396.695 164.952C397.153 165.837 397.381 166.871 397.381 168.054C397.381 169.227 397.153 170.259 396.695 171.149C396.238 172.034 395.587 172.725 394.741 173.222C393.901 173.714 392.902 173.96 391.744 173.96ZM391.759 171.499C392.286 171.499 392.725 171.35 393.078 171.052C393.431 170.749 393.697 170.336 393.876 169.814C394.06 169.292 394.152 168.698 394.152 168.032C394.152 167.365 394.06 166.771 393.876 166.249C393.697 165.727 393.431 165.315 393.078 165.011C392.725 164.708 392.286 164.557 391.759 164.557C391.227 164.557 390.779 164.708 390.416 165.011C390.058 165.315 389.787 165.727 389.603 166.249C389.424 166.771 389.335 167.365 389.335 168.032C389.335 168.698 389.424 169.292 389.603 169.814C389.787 170.336 390.058 170.749 390.416 171.052C390.779 171.35 391.227 171.499 391.759 171.499ZM406.793 168.859V162.282H409.969V173.737H406.919V171.656H406.8C406.542 172.327 406.111 172.867 405.51 173.274C404.913 173.682 404.185 173.886 403.325 173.886C402.559 173.886 401.886 173.712 401.304 173.364C400.722 173.016 400.267 172.521 399.939 171.88C399.616 171.238 399.452 170.47 399.447 169.575V162.282H402.624V169.009C402.629 169.685 402.81 170.219 403.168 170.612C403.526 171.005 404.006 171.201 404.608 171.201C404.99 171.201 405.348 171.114 405.681 170.94C406.015 170.761 406.283 170.498 406.487 170.15C406.696 169.802 406.798 169.372 406.793 168.859ZM412.511 173.737V162.282H415.59V164.281H415.71C415.919 163.57 416.269 163.033 416.761 162.67C417.253 162.302 417.82 162.118 418.462 162.118C418.621 162.118 418.792 162.128 418.976 162.148C419.16 162.168 419.322 162.195 419.461 162.23V165.049C419.312 165.004 419.105 164.964 418.842 164.929C418.578 164.895 418.337 164.877 418.119 164.877C417.651 164.877 417.234 164.979 416.866 165.183C416.503 165.382 416.214 165.66 416.001 166.018C415.792 166.376 415.687 166.789 415.687 167.256V173.737H412.511ZM297.726 187.856C297.667 187.255 297.411 186.787 296.958 186.454C296.506 186.121 295.892 185.955 295.116 185.955C294.589 185.955 294.144 186.029 293.782 186.178C293.419 186.323 293.14 186.524 292.946 186.782C292.757 187.041 292.663 187.334 292.663 187.662C292.653 187.936 292.71 188.174 292.834 188.378C292.964 188.582 293.14 188.759 293.364 188.908C293.588 189.052 293.846 189.179 294.139 189.288C294.433 189.392 294.746 189.482 295.079 189.557L296.451 189.885C297.117 190.034 297.729 190.233 298.286 190.481C298.843 190.73 299.325 191.036 299.732 191.399C300.14 191.761 300.456 192.189 300.68 192.681C300.908 193.173 301.025 193.738 301.03 194.374C301.025 195.309 300.786 196.119 300.314 196.805C299.847 197.486 299.171 198.016 298.286 198.394C297.406 198.766 296.344 198.953 295.101 198.953C293.869 198.953 292.795 198.764 291.88 198.386C290.97 198.008 290.259 197.449 289.747 196.708C289.24 195.962 288.974 195.04 288.949 193.941H292.074C292.109 194.454 292.255 194.881 292.514 195.224C292.777 195.562 293.128 195.818 293.565 195.992C294.008 196.161 294.507 196.246 295.064 196.246C295.611 196.246 296.086 196.166 296.489 196.007C296.896 195.848 297.212 195.627 297.436 195.343C297.659 195.06 297.771 194.734 297.771 194.367C297.771 194.024 297.669 193.735 297.465 193.501C297.267 193.268 296.973 193.069 296.585 192.905C296.203 192.741 295.733 192.592 295.176 192.457L293.513 192.04C292.225 191.727 291.209 191.237 290.463 190.571C289.717 189.905 289.347 189.007 289.352 187.879C289.347 186.954 289.593 186.146 290.09 185.455C290.592 184.764 291.281 184.224 292.156 183.837C293.031 183.449 294.025 183.255 295.139 183.255C296.272 183.255 297.262 183.449 298.107 183.837C298.957 184.224 299.618 184.764 300.09 185.455C300.563 186.146 300.806 186.946 300.821 187.856H297.726ZM306.319 192.114V198.737H303.142V183.464H306.23V189.303H306.364C306.623 188.627 307.04 188.097 307.617 187.715C308.194 187.327 308.917 187.133 309.787 187.133C310.582 187.133 311.276 187.307 311.868 187.655C312.464 187.998 312.926 188.493 313.255 189.139C313.588 189.78 313.752 190.548 313.747 191.443V198.737H310.57V192.01C310.575 191.304 310.396 190.755 310.033 190.362C309.675 189.969 309.173 189.773 308.527 189.773C308.094 189.773 307.711 189.865 307.378 190.049C307.05 190.233 306.792 190.501 306.603 190.854C306.419 191.202 306.324 191.622 306.319 192.114ZM316.247 198.737V187.282H319.424V198.737H316.247ZM317.843 185.805C317.37 185.805 316.965 185.649 316.627 185.336C316.294 185.017 316.128 184.637 316.128 184.195C316.128 183.757 316.294 183.382 316.627 183.069C316.965 182.75 317.37 182.591 317.843 182.591C318.315 182.591 318.718 182.75 319.051 183.069C319.389 183.382 319.558 183.757 319.558 184.195C319.558 184.637 319.389 185.017 319.051 185.336C318.718 185.649 318.315 185.805 317.843 185.805ZM321.969 203.032V187.282H325.101V189.206H325.242C325.382 188.898 325.583 188.585 325.846 188.266C326.115 187.943 326.463 187.675 326.89 187.461C327.323 187.242 327.86 187.133 328.501 187.133C329.336 187.133 330.107 187.352 330.813 187.789C331.519 188.222 332.083 188.875 332.506 189.75C332.928 190.62 333.14 191.712 333.14 193.024C333.14 194.302 332.933 195.381 332.521 196.261C332.113 197.136 331.556 197.799 330.85 198.252C330.149 198.699 329.364 198.923 328.494 198.923C327.877 198.923 327.353 198.821 326.92 198.617C326.493 198.413 326.142 198.157 325.869 197.849C325.595 197.536 325.387 197.22 325.242 196.902H325.145V203.032H321.969ZM325.078 193.009C325.078 193.69 325.173 194.285 325.362 194.792C325.551 195.299 325.824 195.694 326.182 195.977C326.54 196.256 326.975 196.395 327.487 196.395C328.004 196.395 328.442 196.253 328.8 195.97C329.157 195.682 329.428 195.284 329.612 194.777C329.801 194.265 329.896 193.675 329.896 193.009C329.896 192.348 329.804 191.766 329.62 191.264C329.436 190.762 329.165 190.369 328.807 190.086C328.449 189.803 328.009 189.661 327.487 189.661C326.97 189.661 326.532 189.798 326.175 190.071C325.822 190.345 325.551 190.732 325.362 191.234C325.173 191.737 325.078 192.328 325.078 193.009ZM335.258 198.737V187.282H338.285V189.303H338.42C338.658 188.632 339.056 188.102 339.613 187.715C340.17 187.327 340.836 187.133 341.611 187.133C342.397 187.133 343.066 187.329 343.617 187.722C344.169 188.11 344.537 188.637 344.721 189.303H344.84C345.074 188.647 345.497 188.122 346.108 187.729C346.725 187.332 347.453 187.133 348.293 187.133C349.362 187.133 350.23 187.473 350.896 188.155C351.567 188.831 351.903 189.79 351.903 191.033V198.737H348.733V191.66C348.733 191.023 348.564 190.546 348.226 190.228C347.888 189.91 347.465 189.75 346.958 189.75C346.382 189.75 345.932 189.934 345.608 190.302C345.285 190.665 345.124 191.145 345.124 191.742V198.737H342.044V191.592C342.044 191.031 341.882 190.583 341.559 190.25C341.241 189.917 340.821 189.75 340.299 189.75C339.946 189.75 339.628 189.84 339.344 190.019C339.066 190.193 338.845 190.439 338.681 190.757C338.517 191.07 338.434 191.438 338.434 191.861V198.737H335.258ZM359.632 198.96C358.454 198.96 357.44 198.722 356.589 198.244C355.744 197.762 355.093 197.081 354.636 196.201C354.178 195.316 353.95 194.27 353.95 193.062C353.95 191.883 354.178 190.849 354.636 189.959C355.093 189.069 355.737 188.376 356.567 187.879C357.402 187.381 358.382 187.133 359.505 187.133C360.261 187.133 360.964 187.255 361.616 187.498C362.272 187.737 362.844 188.097 363.331 188.58C363.823 189.062 364.206 189.668 364.479 190.399C364.753 191.125 364.89 191.975 364.89 192.95V193.822H355.217V191.853H361.899C361.899 191.396 361.8 190.991 361.601 190.638C361.402 190.285 361.126 190.009 360.773 189.81C360.425 189.606 360.02 189.504 359.558 189.504C359.075 189.504 358.648 189.616 358.275 189.84C357.907 190.059 357.619 190.354 357.41 190.727C357.201 191.095 357.094 191.505 357.089 191.958V193.83C357.089 194.396 357.194 194.886 357.402 195.299C357.616 195.711 357.917 196.03 358.305 196.253C358.692 196.477 359.152 196.589 359.684 196.589C360.037 196.589 360.36 196.539 360.654 196.44C360.947 196.34 361.198 196.191 361.407 195.992C361.616 195.793 361.775 195.55 361.884 195.261L364.822 195.455C364.673 196.161 364.368 196.778 363.905 197.305C363.448 197.827 362.856 198.234 362.13 198.528C361.409 198.816 360.577 198.96 359.632 198.96ZM370.14 192.114V198.737H366.963V187.282H369.99V189.303H370.125C370.378 188.637 370.803 188.11 371.4 187.722C371.996 187.329 372.72 187.133 373.57 187.133C374.365 187.133 375.059 187.307 375.651 187.655C376.242 188.003 376.702 188.5 377.03 189.146C377.358 189.788 377.522 190.553 377.522 191.443V198.737H374.346V192.01C374.35 191.309 374.172 190.762 373.809 190.369C373.446 189.972 372.946 189.773 372.31 189.773C371.882 189.773 371.504 189.865 371.176 190.049C370.853 190.233 370.599 190.501 370.415 190.854C370.236 191.202 370.145 191.622 370.14 192.114ZM386.119 187.282V189.668H379.221V187.282H386.119ZM380.787 184.538H383.964V195.217C383.964 195.51 384.008 195.739 384.098 195.903C384.187 196.062 384.312 196.174 384.471 196.238C384.635 196.303 384.824 196.335 385.038 196.335C385.187 196.335 385.336 196.323 385.485 196.298C385.634 196.268 385.748 196.246 385.828 196.231L386.328 198.595C386.169 198.645 385.945 198.702 385.657 198.766C385.368 198.836 385.018 198.878 384.605 198.893C383.839 198.923 383.168 198.821 382.592 198.587C382.02 198.354 381.575 197.991 381.257 197.499C380.938 197.006 380.782 196.385 380.787 195.634V184.538ZM397.575 190.548L394.667 190.727C394.617 190.479 394.51 190.255 394.346 190.056C394.182 189.852 393.966 189.691 393.697 189.571C393.434 189.447 393.118 189.385 392.75 189.385C392.258 189.385 391.843 189.489 391.505 189.698C391.167 189.902 390.998 190.175 390.998 190.519C390.998 190.792 391.107 191.023 391.326 191.212C391.545 191.401 391.92 191.553 392.452 191.667L394.525 192.085C395.639 192.313 396.469 192.681 397.016 193.188C397.563 193.695 397.836 194.362 397.836 195.187C397.836 195.938 397.615 196.596 397.173 197.163C396.735 197.73 396.134 198.172 395.368 198.49C394.607 198.804 393.73 198.96 392.735 198.96C391.219 198.96 390.011 198.645 389.111 198.013C388.216 197.377 387.692 196.512 387.538 195.418L390.662 195.254C390.757 195.716 390.985 196.069 391.348 196.313C391.711 196.552 392.176 196.671 392.743 196.671C393.3 196.671 393.747 196.564 394.085 196.35C394.428 196.131 394.602 195.851 394.607 195.508C394.602 195.219 394.48 194.983 394.242 194.799C394.003 194.61 393.635 194.466 393.138 194.367L391.154 193.971C390.036 193.748 389.203 193.36 388.656 192.808C388.114 192.256 387.843 191.553 387.843 190.698C387.843 189.962 388.042 189.328 388.44 188.796C388.843 188.264 389.407 187.854 390.133 187.565C390.864 187.277 391.719 187.133 392.698 187.133C394.145 187.133 395.283 187.439 396.114 188.05C396.949 188.662 397.436 189.494 397.575 190.548Z" fill="white"/>
<line x1="166.481" y1="180.707" x2="254.997" y2="180.5" stroke="#0088FF" stroke-width="3" stroke-dasharray="10 10"/>
<path d="M882.765 174L878.395 158.727H881.923L884.451 169.339H884.577L887.366 158.727H890.387L893.168 169.362H893.303L895.831 158.727H899.358L894.988 174H891.841L888.933 164.015H888.813L885.912 174H882.765ZM905.016 174.224C903.838 174.224 902.824 173.985 901.974 173.508C901.128 173.026 900.477 172.344 900.02 171.464C899.562 170.58 899.334 169.533 899.334 168.325C899.334 167.147 899.562 166.113 900.02 165.223C900.477 164.333 901.121 163.639 901.951 163.142C902.786 162.645 903.766 162.396 904.889 162.396C905.645 162.396 906.349 162.518 907 162.762C907.656 163 908.228 163.361 908.715 163.843C909.207 164.325 909.59 164.932 909.864 165.663C910.137 166.388 910.274 167.239 910.274 168.213V169.086H900.601V167.117H907.283C907.283 166.659 907.184 166.254 906.985 165.901C906.786 165.548 906.51 165.272 906.157 165.074C905.809 164.87 905.404 164.768 904.942 164.768C904.459 164.768 904.032 164.88 903.659 165.103C903.291 165.322 903.003 165.618 902.794 165.991C902.585 166.359 902.478 166.769 902.473 167.221V169.093C902.473 169.66 902.578 170.15 902.786 170.562C903 170.975 903.301 171.293 903.689 171.517C904.077 171.74 904.536 171.852 905.068 171.852C905.421 171.852 905.745 171.803 906.038 171.703C906.331 171.604 906.582 171.455 906.791 171.256C907 171.057 907.159 170.813 907.268 170.525L910.207 170.719C910.057 171.425 909.752 172.041 909.289 172.568C908.832 173.09 908.24 173.498 907.514 173.791C906.794 174.08 905.961 174.224 905.016 174.224ZM921.428 174.186C920.558 174.186 919.77 173.963 919.064 173.515C918.363 173.063 917.806 172.399 917.394 171.524C916.986 170.644 916.782 169.565 916.782 168.288C916.782 166.975 916.993 165.884 917.416 165.014C917.839 164.139 918.4 163.485 919.101 163.053C919.807 162.615 920.58 162.396 921.421 162.396C922.062 162.396 922.596 162.506 923.024 162.724C923.456 162.938 923.805 163.207 924.068 163.53C924.336 163.848 924.54 164.161 924.68 164.469H924.776V158.727H927.946V174H924.814V172.165H924.68C924.53 172.484 924.319 172.799 924.046 173.113C923.777 173.421 923.427 173.677 922.994 173.881C922.567 174.085 922.045 174.186 921.428 174.186ZM922.435 171.658C922.947 171.658 923.379 171.519 923.732 171.241C924.09 170.957 924.364 170.562 924.553 170.055C924.747 169.548 924.844 168.954 924.844 168.273C924.844 167.592 924.749 167 924.56 166.498C924.371 165.996 924.098 165.608 923.74 165.335C923.382 165.061 922.947 164.924 922.435 164.924C921.913 164.924 921.473 165.066 921.115 165.349C920.757 165.633 920.486 166.026 920.302 166.528C920.118 167.03 920.026 167.612 920.026 168.273C920.026 168.939 920.118 169.528 920.302 170.04C920.491 170.547 920.762 170.945 921.115 171.233C921.473 171.517 921.913 171.658 922.435 171.658ZM935.778 174.224C934.6 174.224 933.585 173.985 932.735 173.508C931.89 173.026 931.239 172.344 930.782 171.464C930.324 170.58 930.095 169.533 930.095 168.325C930.095 167.147 930.324 166.113 930.782 165.223C931.239 164.333 931.883 163.639 932.713 163.142C933.548 162.645 934.528 162.396 935.651 162.396C936.407 162.396 937.11 162.518 937.762 162.762C938.418 163 938.99 163.361 939.477 163.843C939.969 164.325 940.352 164.932 940.625 165.663C940.899 166.388 941.035 167.239 941.035 168.213V169.086H931.363V167.117H938.045C938.045 166.659 937.946 166.254 937.747 165.901C937.548 165.548 937.272 165.272 936.919 165.074C936.571 164.87 936.166 164.768 935.703 164.768C935.221 164.768 934.794 164.88 934.421 165.103C934.053 165.322 933.764 165.618 933.556 165.991C933.347 166.359 933.24 166.769 933.235 167.221V169.093C933.235 169.66 933.339 170.15 933.548 170.562C933.762 170.975 934.063 171.293 934.451 171.517C934.838 171.74 935.298 171.852 935.83 171.852C936.183 171.852 936.506 171.803 936.8 171.703C937.093 171.604 937.344 171.455 937.553 171.256C937.762 171.057 937.921 170.813 938.03 170.525L940.968 170.719C940.819 171.425 940.513 172.041 940.051 172.568C939.594 173.09 939.002 173.498 938.276 173.791C937.555 174.08 936.723 174.224 935.778 174.224ZM946.375 174.216C945.644 174.216 944.993 174.089 944.421 173.836C943.849 173.577 943.397 173.197 943.064 172.695C942.736 172.188 942.572 171.556 942.572 170.801C942.572 170.164 942.688 169.63 942.922 169.197C943.156 168.765 943.474 168.417 943.877 168.153C944.279 167.89 944.737 167.691 945.249 167.557C945.766 167.423 946.308 167.328 946.875 167.273C947.541 167.204 948.078 167.139 948.485 167.08C948.893 167.015 949.189 166.92 949.373 166.796C949.557 166.672 949.649 166.488 949.649 166.244V166.2C949.649 165.727 949.5 165.362 949.201 165.103C948.908 164.845 948.49 164.716 947.948 164.716C947.377 164.716 946.922 164.842 946.584 165.096C946.246 165.344 946.022 165.658 945.913 166.036L942.974 165.797C943.123 165.101 943.417 164.499 943.854 163.992C944.292 163.48 944.856 163.087 945.547 162.814C946.243 162.536 947.049 162.396 947.963 162.396C948.6 162.396 949.209 162.471 949.79 162.62C950.377 162.769 950.897 163 951.349 163.314C951.806 163.627 952.167 164.029 952.43 164.522C952.694 165.009 952.826 165.593 952.826 166.274V174H949.813V172.412H949.723C949.539 172.77 949.293 173.085 948.985 173.359C948.677 173.627 948.306 173.838 947.874 173.993C947.441 174.142 946.942 174.216 946.375 174.216ZM947.285 172.024C947.752 172.024 948.165 171.932 948.523 171.748C948.881 171.559 949.161 171.305 949.365 170.987C949.569 170.669 949.671 170.309 949.671 169.906V168.69C949.572 168.755 949.435 168.815 949.261 168.869C949.092 168.919 948.9 168.966 948.687 169.011C948.473 169.051 948.259 169.088 948.045 169.123C947.832 169.153 947.638 169.18 947.464 169.205C947.091 169.26 946.765 169.347 946.487 169.466C946.208 169.585 945.992 169.747 945.838 169.951C945.684 170.15 945.607 170.398 945.607 170.696C945.607 171.129 945.763 171.46 946.077 171.688C946.395 171.912 946.797 172.024 947.285 172.024ZM958.467 158.727V174H955.29V158.727H958.467ZM968.132 174L965.015 162.545H968.229L970.004 170.241H970.108L971.957 162.545H975.112L976.991 170.197H977.088L978.833 162.545H982.04L978.93 174H975.567L973.598 166.796H973.456L971.488 174H968.132ZM983.735 174V162.545H986.911V174H983.735ZM985.33 161.069C984.858 161.069 984.453 160.912 984.115 160.599C983.782 160.281 983.615 159.901 983.615 159.458C983.615 159.021 983.782 158.645 984.115 158.332C984.453 158.014 984.858 157.855 985.33 157.855C985.803 157.855 986.205 158.014 986.539 158.332C986.877 158.645 987.046 159.021 987.046 159.458C987.046 159.901 986.877 160.281 986.539 160.599C986.205 160.912 985.803 161.069 985.33 161.069ZM995.549 162.545V164.932H988.651V162.545H995.549ZM990.217 159.801H993.394V170.48C993.394 170.773 993.438 171.002 993.528 171.166C993.617 171.325 993.742 171.437 993.901 171.502C994.065 171.566 994.254 171.599 994.468 171.599C994.617 171.599 994.766 171.586 994.915 171.561C995.064 171.532 995.179 171.509 995.258 171.494L995.758 173.858C995.599 173.908 995.375 173.965 995.087 174.03C994.798 174.099 994.448 174.142 994.035 174.157C993.269 174.186 992.598 174.085 992.022 173.851C991.45 173.617 991.005 173.254 990.687 172.762C990.369 172.27 990.212 171.648 990.217 170.898V159.801ZM1001.04 167.378V174H997.864V158.727H1000.95V164.566H1001.09C1001.34 163.89 1001.76 163.361 1002.34 162.978C1002.92 162.59 1003.64 162.396 1004.51 162.396C1005.3 162.396 1006 162.57 1006.59 162.918C1007.19 163.261 1007.65 163.756 1007.98 164.402C1008.31 165.044 1008.47 165.812 1008.47 166.707V174H1005.29V167.273C1005.3 166.567 1005.12 166.018 1004.76 165.625C1004.4 165.233 1003.89 165.036 1003.25 165.036C1002.82 165.036 1002.43 165.128 1002.1 165.312C1001.77 165.496 1001.51 165.765 1001.32 166.118C1001.14 166.466 1001.05 166.886 1001.04 167.378ZM879.268 199V187.545H882.445V199H879.268ZM880.864 186.069C880.391 186.069 879.986 185.912 879.648 185.599C879.315 185.281 879.148 184.901 879.148 184.458C879.148 184.021 879.315 183.645 879.648 183.332C879.986 183.014 880.391 182.855 880.864 182.855C881.336 182.855 881.739 183.014 882.072 183.332C882.41 183.645 882.579 184.021 882.579 184.458C882.579 184.901 882.41 185.281 882.072 185.599C881.739 185.912 881.336 186.069 880.864 186.069ZM894.52 190.812L891.612 190.991C891.562 190.742 891.455 190.518 891.291 190.32C891.127 190.116 890.911 189.954 890.642 189.835C890.379 189.711 890.063 189.648 889.695 189.648C889.203 189.648 888.788 189.753 888.45 189.962C888.112 190.165 887.943 190.439 887.943 190.782C887.943 191.055 888.052 191.287 888.271 191.475C888.489 191.664 888.865 191.816 889.397 191.93L891.47 192.348C892.584 192.577 893.414 192.945 893.961 193.452C894.508 193.959 894.781 194.625 894.781 195.45C894.781 196.201 894.56 196.86 894.117 197.426C893.68 197.993 893.078 198.436 892.313 198.754C891.552 199.067 890.674 199.224 889.68 199.224C888.164 199.224 886.956 198.908 886.056 198.277C885.161 197.64 884.636 196.775 884.482 195.681L887.607 195.517C887.701 195.98 887.93 196.333 888.293 196.576C888.656 196.815 889.121 196.934 889.688 196.934C890.244 196.934 890.692 196.827 891.03 196.614C891.373 196.395 891.547 196.114 891.552 195.771C891.547 195.483 891.425 195.246 891.187 195.062C890.948 194.874 890.58 194.729 890.083 194.63L888.099 194.235C886.981 194.011 886.148 193.623 885.601 193.071C885.059 192.52 884.788 191.816 884.788 190.961C884.788 190.225 884.987 189.591 885.385 189.059C885.787 188.527 886.352 188.117 887.078 187.829C887.808 187.54 888.663 187.396 889.643 187.396C891.09 187.396 892.228 187.702 893.058 188.314C893.894 188.925 894.381 189.758 894.52 190.812ZM906.312 190.812L903.404 190.991C903.354 190.742 903.247 190.518 903.083 190.32C902.919 190.116 902.703 189.954 902.434 189.835C902.171 189.711 901.855 189.648 901.487 189.648C900.995 189.648 900.58 189.753 900.242 189.962C899.904 190.165 899.735 190.439 899.735 190.782C899.735 191.055 899.844 191.287 900.063 191.475C900.281 191.664 900.657 191.816 901.189 191.93L903.262 192.348C904.376 192.577 905.206 192.945 905.753 193.452C906.3 193.959 906.573 194.625 906.573 195.45C906.573 196.201 906.352 196.86 905.909 197.426C905.472 197.993 904.87 198.436 904.105 198.754C903.344 199.067 902.466 199.224 901.472 199.224C899.956 199.224 898.748 198.908 897.848 198.277C896.953 197.64 896.428 196.775 896.274 195.681L899.399 195.517C899.493 195.98 899.722 196.333 900.085 196.576C900.448 196.815 900.913 196.934 901.48 196.934C902.036 196.934 902.484 196.827 902.822 196.614C903.165 196.395 903.339 196.114 903.344 195.771C903.339 195.483 903.217 195.246 902.979 195.062C902.74 194.874 902.372 194.729 901.875 194.63L899.891 194.235C898.773 194.011 897.94 193.623 897.393 193.071C896.851 192.52 896.58 191.816 896.58 190.961C896.58 190.225 896.779 189.591 897.177 189.059C897.579 188.527 898.144 188.117 898.869 187.829C899.6 187.54 900.455 187.396 901.435 187.396C902.882 187.396 904.02 187.702 904.85 188.314C905.686 188.925 906.173 189.758 906.312 190.812ZM915.919 194.123V187.545H919.096V199H916.046V196.919H915.926C915.668 197.591 915.238 198.13 914.636 198.538C914.04 198.945 913.311 199.149 912.451 199.149C911.686 199.149 911.012 198.975 910.43 198.627C909.849 198.279 909.394 197.784 909.066 197.143C908.742 196.502 908.578 195.734 908.573 194.839V187.545H911.75V194.272C911.755 194.948 911.937 195.483 912.295 195.875C912.653 196.268 913.132 196.464 913.734 196.464C914.117 196.464 914.475 196.377 914.808 196.203C915.141 196.025 915.409 195.761 915.613 195.413C915.822 195.065 915.924 194.635 915.919 194.123ZM926.857 199.224C925.679 199.224 924.665 198.985 923.814 198.508C922.969 198.026 922.318 197.344 921.861 196.464C921.403 195.58 921.175 194.533 921.175 193.325C921.175 192.147 921.403 191.113 921.861 190.223C922.318 189.333 922.962 188.639 923.792 188.142C924.627 187.645 925.607 187.396 926.73 187.396C927.486 187.396 928.189 187.518 928.841 187.762C929.497 188 930.069 188.361 930.556 188.843C931.048 189.325 931.431 189.932 931.704 190.663C931.978 191.388 932.115 192.239 932.115 193.213V194.086H922.442V192.117H929.124C929.124 191.659 929.025 191.254 928.826 190.901C928.627 190.548 928.351 190.272 927.998 190.074C927.65 189.87 927.245 189.768 926.782 189.768C926.3 189.768 925.873 189.88 925.5 190.103C925.132 190.322 924.844 190.618 924.635 190.991C924.426 191.359 924.319 191.769 924.314 192.221V194.093C924.314 194.66 924.419 195.15 924.627 195.562C924.841 195.975 925.142 196.293 925.53 196.517C925.917 196.74 926.377 196.852 926.909 196.852C927.262 196.852 927.585 196.803 927.879 196.703C928.172 196.604 928.423 196.455 928.632 196.256C928.841 196.057 929 195.813 929.109 195.525L932.047 195.719C931.898 196.425 931.593 197.041 931.13 197.568C930.673 198.09 930.081 198.498 929.355 198.791C928.634 199.08 927.802 199.224 926.857 199.224ZM943.718 190.812L940.81 190.991C940.76 190.742 940.653 190.518 940.489 190.32C940.325 190.116 940.109 189.954 939.84 189.835C939.577 189.711 939.261 189.648 938.893 189.648C938.401 189.648 937.986 189.753 937.648 189.962C937.31 190.165 937.141 190.439 937.141 190.782C937.141 191.055 937.25 191.287 937.469 191.475C937.688 191.664 938.063 191.816 938.595 191.93L940.668 192.348C941.782 192.577 942.612 192.945 943.159 193.452C943.706 193.959 943.979 194.625 943.979 195.45C943.979 196.201 943.758 196.86 943.316 197.426C942.878 197.993 942.276 198.436 941.511 198.754C940.75 199.067 939.873 199.224 938.878 199.224C937.362 199.224 936.154 198.908 935.254 198.277C934.359 197.64 933.835 196.775 933.681 195.681L936.805 195.517C936.9 195.98 937.128 196.333 937.491 196.576C937.854 196.815 938.319 196.934 938.886 196.934C939.443 196.934 939.89 196.827 940.228 196.614C940.571 196.395 940.745 196.114 940.75 195.771C940.745 195.483 940.623 195.246 940.385 195.062C940.146 194.874 939.778 194.729 939.281 194.63L937.297 194.235C936.179 194.011 935.346 193.623 934.799 193.071C934.257 192.52 933.986 191.816 933.986 190.961C933.986 190.225 934.185 189.591 934.583 189.059C934.986 188.527 935.55 188.117 936.276 187.829C937.007 187.54 937.862 187.396 938.841 187.396C940.288 187.396 941.426 187.702 942.257 188.314C943.092 188.925 943.579 189.758 943.718 190.812Z" fill="white"/>
<path d="M1182.5 158.464H1186.11L1189.6 165.041H1189.75L1193.23 158.464H1196.84L1191.27 168.337V173.737H1188.07V168.337L1182.5 158.464ZM1201.32 173.96C1200.17 173.96 1199.16 173.714 1198.32 173.222C1197.48 172.725 1196.83 172.034 1196.37 171.149C1195.92 170.259 1195.69 169.227 1195.69 168.054C1195.69 166.871 1195.92 165.837 1196.37 164.952C1196.83 164.062 1197.48 163.371 1198.32 162.879C1199.16 162.381 1200.17 162.133 1201.32 162.133C1202.48 162.133 1203.48 162.381 1204.32 162.879C1205.17 163.371 1205.82 164.062 1206.28 164.952C1206.73 165.837 1206.96 166.871 1206.96 168.054C1206.96 169.227 1206.73 170.259 1206.28 171.149C1205.82 172.034 1205.17 172.725 1204.32 173.222C1203.48 173.714 1202.48 173.96 1201.32 173.96ZM1201.34 171.499C1201.87 171.499 1202.31 171.35 1202.66 171.052C1203.01 170.749 1203.28 170.336 1203.46 169.814C1203.64 169.292 1203.73 168.698 1203.73 168.032C1203.73 167.365 1203.64 166.771 1203.46 166.249C1203.28 165.727 1203.01 165.315 1202.66 165.011C1202.31 164.708 1201.87 164.557 1201.34 164.557C1200.81 164.557 1200.36 164.708 1200 165.011C1199.64 165.315 1199.37 165.727 1199.18 166.249C1199.01 166.771 1198.92 167.365 1198.92 168.032C1198.92 168.698 1199.01 169.292 1199.18 169.814C1199.37 170.336 1199.64 170.749 1200 171.052C1200.36 171.35 1200.81 171.499 1201.34 171.499ZM1216.37 168.859V162.282H1219.55V173.737H1216.5V171.656H1216.38C1216.12 172.327 1215.69 172.867 1215.09 173.274C1214.49 173.682 1213.77 173.886 1212.91 173.886C1212.14 173.886 1211.47 173.712 1210.89 173.364C1210.3 173.016 1209.85 172.521 1209.52 171.88C1209.2 171.238 1209.03 170.47 1209.03 169.575V162.282H1212.21V169.009C1212.21 169.685 1212.39 170.219 1212.75 170.612C1213.11 171.005 1213.59 171.201 1214.19 171.201C1214.57 171.201 1214.93 171.114 1215.26 170.94C1215.6 170.761 1215.86 170.498 1216.07 170.15C1216.28 169.802 1216.38 169.372 1216.37 168.859ZM1232.11 178.271C1231.08 178.271 1230.2 178.129 1229.47 177.846C1228.73 177.567 1228.15 177.187 1227.72 176.705C1227.29 176.222 1227.01 175.68 1226.88 175.079L1229.82 174.684C1229.91 174.912 1230.05 175.126 1230.24 175.325C1230.43 175.524 1230.69 175.683 1231.01 175.802C1231.33 175.927 1231.72 175.989 1232.19 175.989C1232.88 175.989 1233.45 175.82 1233.89 175.482C1234.35 175.149 1234.57 174.589 1234.57 173.804V171.708H1234.44C1234.3 172.026 1234.09 172.327 1233.81 172.611C1233.53 172.894 1233.18 173.125 1232.74 173.304C1232.3 173.483 1231.78 173.573 1231.17 173.573C1230.31 173.573 1229.53 173.374 1228.82 172.976C1228.12 172.573 1227.56 171.959 1227.15 171.134C1226.73 170.304 1226.53 169.255 1226.53 167.987C1226.53 166.689 1226.74 165.606 1227.16 164.736C1227.58 163.865 1228.15 163.214 1228.85 162.782C1229.55 162.349 1230.33 162.133 1231.17 162.133C1231.81 162.133 1232.34 162.242 1232.78 162.461C1233.21 162.675 1233.56 162.943 1233.82 163.266C1234.09 163.585 1234.3 163.898 1234.44 164.206H1234.56V162.282H1237.71V173.848C1237.71 174.823 1237.47 175.638 1237 176.294C1236.52 176.951 1235.86 177.443 1235.01 177.771C1234.17 178.104 1233.21 178.271 1232.11 178.271ZM1232.18 171.186C1232.69 171.186 1233.12 171.059 1233.48 170.806C1233.84 170.547 1234.11 170.179 1234.3 169.702C1234.49 169.22 1234.59 168.643 1234.59 167.972C1234.59 167.301 1234.49 166.719 1234.31 166.227C1234.12 165.73 1233.84 165.345 1233.48 165.071C1233.13 164.798 1232.69 164.661 1232.18 164.661C1231.66 164.661 1231.22 164.803 1230.86 165.086C1230.5 165.364 1230.23 165.752 1230.05 166.249C1229.86 166.747 1229.77 167.321 1229.77 167.972C1229.77 168.633 1229.86 169.205 1230.05 169.687C1230.24 170.164 1230.51 170.535 1230.86 170.798C1231.22 171.057 1231.66 171.186 1232.18 171.186ZM1245.46 173.96C1244.28 173.96 1243.27 173.722 1242.42 173.244C1241.57 172.762 1240.92 172.081 1240.46 171.201C1240.01 170.316 1239.78 169.27 1239.78 168.062C1239.78 166.883 1240.01 165.849 1240.46 164.959C1240.92 164.069 1241.57 163.376 1242.4 162.879C1243.23 162.381 1244.21 162.133 1245.33 162.133C1246.09 162.133 1246.79 162.255 1247.44 162.498C1248.1 162.737 1248.67 163.097 1249.16 163.58C1249.65 164.062 1250.04 164.668 1250.31 165.399C1250.58 166.125 1250.72 166.975 1250.72 167.95V168.822H1241.05V166.853H1247.73C1247.73 166.396 1247.63 165.991 1247.43 165.638C1247.23 165.285 1246.96 165.009 1246.6 164.81C1246.25 164.606 1245.85 164.504 1245.39 164.504C1244.9 164.504 1244.48 164.616 1244.1 164.84C1243.74 165.059 1243.45 165.354 1243.24 165.727C1243.03 166.095 1242.92 166.505 1242.92 166.958V168.83C1242.92 169.396 1243.02 169.886 1243.23 170.299C1243.45 170.711 1243.75 171.03 1244.13 171.253C1244.52 171.477 1244.98 171.589 1245.51 171.589C1245.87 171.589 1246.19 171.539 1246.48 171.44C1246.78 171.34 1247.03 171.191 1247.24 170.992C1247.44 170.793 1247.6 170.55 1247.71 170.261L1250.65 170.455C1250.5 171.161 1250.2 171.778 1249.73 172.305C1249.28 172.827 1248.69 173.234 1247.96 173.528C1247.24 173.816 1246.41 173.96 1245.46 173.96ZM1258.88 162.282V164.668H1251.99V162.282H1258.88ZM1253.55 159.538H1256.73V170.217C1256.73 170.51 1256.77 170.739 1256.86 170.903C1256.95 171.062 1257.08 171.174 1257.24 171.238C1257.4 171.303 1257.59 171.335 1257.8 171.335C1257.95 171.335 1258.1 171.323 1258.25 171.298C1258.4 171.268 1258.51 171.246 1258.59 171.231L1259.09 173.595C1258.93 173.645 1258.71 173.702 1258.42 173.766C1258.13 173.836 1257.78 173.878 1257.37 173.893C1256.61 173.923 1255.93 173.821 1255.36 173.587C1254.79 173.354 1254.34 172.991 1254.02 172.499C1253.7 172.006 1253.55 171.385 1253.55 170.634V159.538ZM1190.68 193.859V187.282H1193.85V198.737H1190.8V196.656H1190.68C1190.43 197.327 1190 197.867 1189.39 198.274C1188.8 198.682 1188.07 198.886 1187.21 198.886C1186.44 198.886 1185.77 198.712 1185.19 198.364C1184.61 198.016 1184.15 197.521 1183.82 196.88C1183.5 196.238 1183.34 195.47 1183.33 194.575V187.282H1186.51V194.009C1186.51 194.685 1186.7 195.219 1187.05 195.612C1187.41 196.005 1187.89 196.201 1188.49 196.201C1188.88 196.201 1189.23 196.114 1189.57 195.94C1189.9 195.761 1190.17 195.498 1190.37 195.15C1190.58 194.802 1190.68 194.372 1190.68 193.859ZM1196.4 203.032V187.282H1199.53V189.206H1199.67C1199.81 188.898 1200.01 188.585 1200.27 188.266C1200.54 187.943 1200.89 187.675 1201.32 187.461C1201.75 187.242 1202.29 187.133 1202.93 187.133C1203.76 187.133 1204.53 187.352 1205.24 187.789C1205.95 188.222 1206.51 188.875 1206.93 189.75C1207.36 190.62 1207.57 191.712 1207.57 193.024C1207.57 194.302 1207.36 195.381 1206.95 196.261C1206.54 197.136 1205.98 197.799 1205.28 198.252C1204.58 198.699 1203.79 198.923 1202.92 198.923C1202.3 198.923 1201.78 198.821 1201.35 198.617C1200.92 198.413 1200.57 198.157 1200.3 197.849C1200.02 197.536 1199.81 197.22 1199.67 196.902H1199.57V203.032H1196.4ZM1199.51 193.009C1199.51 193.69 1199.6 194.285 1199.79 194.792C1199.98 195.299 1200.25 195.694 1200.61 195.977C1200.97 196.256 1201.4 196.395 1201.91 196.395C1202.43 196.395 1202.87 196.253 1203.23 195.97C1203.58 195.682 1203.86 195.284 1204.04 194.777C1204.23 194.265 1204.32 193.675 1204.32 193.009C1204.32 192.348 1204.23 191.766 1204.05 191.264C1203.86 190.762 1203.59 190.369 1203.23 190.086C1202.88 189.803 1202.44 189.661 1201.91 189.661C1201.4 189.661 1200.96 189.798 1200.6 190.071C1200.25 190.345 1199.98 190.732 1199.79 191.234C1199.6 191.737 1199.51 192.328 1199.51 193.009ZM1213.91 198.923C1213.04 198.923 1212.25 198.699 1211.54 198.252C1210.84 197.799 1210.28 197.136 1209.87 196.261C1209.46 195.381 1209.26 194.302 1209.26 193.024C1209.26 191.712 1209.47 190.62 1209.89 189.75C1210.32 188.875 1210.88 188.222 1211.58 187.789C1212.28 187.352 1213.06 187.133 1213.9 187.133C1214.54 187.133 1215.07 187.242 1215.5 187.461C1215.93 187.675 1216.28 187.943 1216.55 188.266C1216.81 188.585 1217.02 188.898 1217.16 189.206H1217.25V183.464H1220.42V198.737H1217.29V196.902H1217.16C1217.01 197.22 1216.8 197.536 1216.52 197.849C1216.25 198.157 1215.9 198.413 1215.47 198.617C1215.04 198.821 1214.52 198.923 1213.91 198.923ZM1214.91 196.395C1215.42 196.395 1215.86 196.256 1216.21 195.977C1216.57 195.694 1216.84 195.299 1217.03 194.792C1217.22 194.285 1217.32 193.69 1217.32 193.009C1217.32 192.328 1217.23 191.737 1217.04 191.234C1216.85 190.732 1216.58 190.345 1216.22 190.071C1215.86 189.798 1215.42 189.661 1214.91 189.661C1214.39 189.661 1213.95 189.803 1213.59 190.086C1213.23 190.369 1212.96 190.762 1212.78 191.264C1212.6 191.766 1212.5 192.348 1212.5 193.009C1212.5 193.675 1212.6 194.265 1212.78 194.777C1212.97 195.284 1213.24 195.682 1213.59 195.97C1213.95 196.253 1214.39 196.395 1214.91 196.395ZM1226.3 198.953C1225.57 198.953 1224.92 198.826 1224.35 198.573C1223.78 198.314 1223.32 197.934 1222.99 197.432C1222.66 196.924 1222.5 196.293 1222.5 195.537C1222.5 194.901 1222.61 194.367 1222.85 193.934C1223.08 193.501 1223.4 193.153 1223.8 192.89C1224.21 192.626 1224.66 192.428 1225.18 192.293C1225.69 192.159 1226.23 192.065 1226.8 192.01C1227.47 191.94 1228 191.876 1228.41 191.816C1228.82 191.751 1229.12 191.657 1229.3 191.533C1229.48 191.408 1229.58 191.224 1229.58 190.981V190.936C1229.58 190.464 1229.43 190.098 1229.13 189.84C1228.83 189.581 1228.42 189.452 1227.87 189.452C1227.3 189.452 1226.85 189.579 1226.51 189.832C1226.17 190.081 1225.95 190.394 1225.84 190.772L1222.9 190.533C1223.05 189.837 1223.34 189.236 1223.78 188.729C1224.22 188.217 1224.78 187.824 1225.47 187.55C1226.17 187.272 1226.98 187.133 1227.89 187.133C1228.53 187.133 1229.14 187.207 1229.72 187.357C1230.3 187.506 1230.82 187.737 1231.28 188.05C1231.73 188.363 1232.09 188.766 1232.36 189.258C1232.62 189.745 1232.75 190.33 1232.75 191.011V198.737H1229.74V197.148H1229.65C1229.47 197.506 1229.22 197.822 1228.91 198.095C1228.6 198.364 1228.23 198.575 1227.8 198.729C1227.37 198.878 1226.87 198.953 1226.3 198.953ZM1227.21 196.76C1227.68 196.76 1228.09 196.668 1228.45 196.484C1228.81 196.296 1229.09 196.042 1229.29 195.724C1229.5 195.406 1229.6 195.045 1229.6 194.642V193.427C1229.5 193.492 1229.36 193.551 1229.19 193.606C1229.02 193.656 1228.83 193.703 1228.61 193.748C1228.4 193.787 1228.19 193.825 1227.97 193.859C1227.76 193.889 1227.56 193.917 1227.39 193.941C1227.02 193.996 1226.69 194.083 1226.41 194.202C1226.13 194.322 1225.92 194.483 1225.76 194.687C1225.61 194.886 1225.53 195.135 1225.53 195.433C1225.53 195.865 1225.69 196.196 1226 196.425C1226.32 196.649 1226.72 196.76 1227.21 196.76ZM1241.31 187.282V189.668H1234.41V187.282H1241.31ZM1235.98 184.538H1239.15V195.217C1239.15 195.51 1239.2 195.739 1239.29 195.903C1239.38 196.062 1239.5 196.174 1239.66 196.238C1239.83 196.303 1240.01 196.335 1240.23 196.335C1240.38 196.335 1240.53 196.323 1240.68 196.298C1240.82 196.268 1240.94 196.246 1241.02 196.231L1241.52 198.595C1241.36 198.645 1241.14 198.702 1240.85 198.766C1240.56 198.836 1240.21 198.878 1239.8 198.893C1239.03 198.923 1238.36 198.821 1237.78 198.587C1237.21 198.354 1236.77 197.991 1236.45 197.499C1236.13 197.006 1235.97 196.385 1235.98 195.634V184.538ZM1248.48 198.96C1247.3 198.96 1246.28 198.722 1245.43 198.244C1244.59 197.762 1243.94 197.081 1243.48 196.201C1243.02 195.316 1242.79 194.27 1242.79 193.062C1242.79 191.883 1243.02 190.849 1243.48 189.959C1243.94 189.069 1244.58 188.376 1245.41 187.879C1246.25 187.381 1247.23 187.133 1248.35 187.133C1249.1 187.133 1249.81 187.255 1250.46 187.498C1251.12 187.737 1251.69 188.097 1252.17 188.58C1252.67 189.062 1253.05 189.668 1253.32 190.399C1253.6 191.125 1253.73 191.975 1253.73 192.95V193.822H1244.06V191.853H1250.74C1250.74 191.396 1250.64 190.991 1250.44 190.638C1250.25 190.285 1249.97 190.009 1249.62 189.81C1249.27 189.606 1248.86 189.504 1248.4 189.504C1247.92 189.504 1247.49 189.616 1247.12 189.84C1246.75 190.059 1246.46 190.354 1246.25 190.727C1246.04 191.095 1245.94 191.505 1245.93 191.958V193.83C1245.93 194.396 1246.04 194.886 1246.25 195.299C1246.46 195.711 1246.76 196.03 1247.15 196.253C1247.54 196.477 1248 196.589 1248.53 196.589C1248.88 196.589 1249.2 196.539 1249.5 196.44C1249.79 196.34 1250.04 196.191 1250.25 195.992C1250.46 195.793 1250.62 195.55 1250.73 195.261L1253.67 195.455C1253.52 196.161 1253.21 196.778 1252.75 197.305C1252.29 197.827 1251.7 198.234 1250.97 198.528C1250.25 198.816 1249.42 198.96 1248.48 198.96ZM1260.03 198.923C1259.16 198.923 1258.37 198.699 1257.66 198.252C1256.96 197.799 1256.41 197.136 1255.99 196.261C1255.59 195.381 1255.38 194.302 1255.38 193.024C1255.38 191.712 1255.59 190.62 1256.02 189.75C1256.44 188.875 1257 188.222 1257.7 187.789C1258.41 187.352 1259.18 187.133 1260.02 187.133C1260.66 187.133 1261.2 187.242 1261.62 187.461C1262.06 187.675 1262.4 187.943 1262.67 188.266C1262.94 188.585 1263.14 188.898 1263.28 189.206H1263.38V183.464H1266.55V198.737H1263.41V196.902H1263.28C1263.13 197.22 1262.92 197.536 1262.64 197.849C1262.38 198.157 1262.03 198.413 1261.59 198.617C1261.17 198.821 1260.64 198.923 1260.03 198.923ZM1261.03 196.395C1261.55 196.395 1261.98 196.256 1262.33 195.977C1262.69 195.694 1262.96 195.299 1263.15 194.792C1263.35 194.285 1263.44 193.69 1263.44 193.009C1263.44 192.328 1263.35 191.737 1263.16 191.234C1262.97 190.732 1262.7 190.345 1262.34 190.071C1261.98 189.798 1261.55 189.661 1261.03 189.661C1260.51 189.661 1260.07 189.803 1259.71 190.086C1259.36 190.369 1259.09 190.762 1258.9 191.264C1258.72 191.766 1258.63 192.348 1258.63 193.009C1258.63 193.675 1258.72 194.265 1258.9 194.777C1259.09 195.284 1259.36 195.682 1259.71 195.97C1260.07 196.253 1260.51 196.395 1261.03 196.395Z" fill="white"/>
<line x1="1042" y1="180.5" x2="1137" y2="180.5" stroke="#0088FF" stroke-width="3" stroke-dasharray="10 10"/>
<path d="M450 181.883L639.811 109L834.911 181.883" stroke="url(#paint0_linear_0_1)" stroke-width="3" stroke-dasharray="10 10"/>
<path d="M640.053 50.6545L656.489 79.0511H623.618L640.053 50.6545ZM640.053 41.9456L616.044 83.4165H664.063L640.053 41.9456ZM642.236 72.5031H637.871V76.8685H642.236V72.5031ZM642.236 59.407H637.871V68.1377H642.236V59.407Z" fill="url(#paint1_linear_0_1)"/>
<path d="M616.724 4.72727V20H613.495V4.72727H616.724ZM628.851 11.8118L625.943 11.9908C625.893 11.7422 625.786 11.5185 625.622 11.3196C625.458 11.1158 625.242 10.9542 624.974 10.8349C624.71 10.7106 624.394 10.6484 624.026 10.6484C623.534 10.6484 623.119 10.7528 622.781 10.9616C622.443 11.1655 622.274 11.4389 622.274 11.782C622.274 12.0554 622.383 12.2866 622.602 12.4755C622.821 12.6644 623.196 12.8161 623.728 12.9304L625.801 13.348C626.915 13.5767 627.745 13.9446 628.292 14.4517C628.839 14.9588 629.112 15.625 629.112 16.4503C629.112 17.201 628.891 17.8597 628.449 18.4265C628.011 18.9933 627.41 19.4357 626.644 19.7539C625.883 20.0671 625.006 20.2237 624.012 20.2237C622.495 20.2237 621.287 19.908 620.387 19.2766C619.492 18.6403 618.968 17.7752 618.814 16.6815L621.938 16.5174C622.033 16.9798 622.262 17.3327 622.624 17.5763C622.987 17.815 623.452 17.9343 624.019 17.9343C624.576 17.9343 625.023 17.8274 625.361 17.6136C625.704 17.3949 625.878 17.114 625.883 16.771C625.878 16.4826 625.757 16.2464 625.518 16.0625C625.279 15.8736 624.911 15.7294 624.414 15.63L622.431 15.2347C621.312 15.011 620.479 14.6232 619.932 14.0714C619.39 13.5195 619.12 12.8161 619.12 11.9609C619.12 11.2251 619.318 10.5913 619.716 10.0593C620.119 9.52734 620.683 9.11719 621.409 8.82883C622.14 8.54048 622.995 8.39631 623.974 8.39631C625.421 8.39631 626.559 8.70206 627.39 9.31356C628.225 9.92507 628.712 10.7578 628.851 11.8118ZM640.643 11.8118L637.735 11.9908C637.685 11.7422 637.578 11.5185 637.414 11.3196C637.25 11.1158 637.034 10.9542 636.766 10.8349C636.502 10.7106 636.186 10.6484 635.818 10.6484C635.326 10.6484 634.911 10.7528 634.573 10.9616C634.235 11.1655 634.066 11.4389 634.066 11.782C634.066 12.0554 634.175 12.2866 634.394 12.4755C634.613 12.6644 634.988 12.8161 635.52 12.9304L637.593 13.348C638.707 13.5767 639.537 13.9446 640.084 14.4517C640.631 14.9588 640.904 15.625 640.904 16.4503C640.904 17.201 640.683 17.8597 640.241 18.4265C639.803 18.9933 639.202 19.4357 638.436 19.7539C637.675 20.0671 636.798 20.2237 635.804 20.2237C634.287 20.2237 633.079 19.908 632.179 19.2766C631.284 18.6403 630.76 17.7752 630.606 16.6815L633.73 16.5174C633.825 16.9798 634.054 17.3327 634.416 17.5763C634.779 17.815 635.244 17.9343 635.811 17.9343C636.368 17.9343 636.815 17.8274 637.153 17.6136C637.496 17.3949 637.67 17.114 637.675 16.771C637.67 16.4826 637.549 16.2464 637.31 16.0625C637.071 15.8736 636.703 15.7294 636.206 15.63L634.223 15.2347C633.104 15.011 632.271 14.6232 631.724 14.0714C631.182 13.5195 630.911 12.8161 630.911 11.9609C630.911 11.2251 631.11 10.5913 631.508 10.0593C631.911 9.52734 632.475 9.11719 633.201 8.82883C633.932 8.54048 634.787 8.39631 635.766 8.39631C637.213 8.39631 638.351 8.70206 639.182 9.31356C640.017 9.92507 640.504 10.7578 640.643 11.8118ZM650.25 15.1229V8.54545H653.427V20H650.377V17.9194H650.258C649.999 18.5906 649.569 19.13 648.968 19.5376C648.371 19.9453 647.643 20.1491 646.783 20.1491C646.017 20.1491 645.343 19.9751 644.762 19.6271C644.18 19.2791 643.725 18.7844 643.397 18.1431C643.074 17.5018 642.91 16.7337 642.905 15.8388V8.54545H646.082V15.272C646.087 15.9482 646.268 16.4826 646.626 16.8754C646.984 17.2681 647.464 17.4645 648.065 17.4645C648.448 17.4645 648.806 17.3775 649.139 17.2035C649.472 17.0245 649.741 16.761 649.945 16.413C650.153 16.065 650.255 15.6349 650.25 15.1229ZM661.188 20.2237C660.01 20.2237 658.996 19.9851 658.146 19.5078C657.301 19.0256 656.649 18.3445 656.192 17.4645C655.735 16.5795 655.506 15.533 655.506 14.3249C655.506 13.1467 655.735 12.1126 656.192 11.2227C656.649 10.3327 657.293 9.6392 658.124 9.14204C658.959 8.64489 659.938 8.39631 661.062 8.39631C661.817 8.39631 662.521 8.51811 663.172 8.76172C663.828 9.00035 664.4 9.3608 664.887 9.84304C665.38 10.3253 665.762 10.9318 666.036 11.6626C666.309 12.3885 666.446 13.2386 666.446 14.2131V15.0856H656.774V13.1168H663.456C663.456 12.6594 663.356 12.2543 663.157 11.9013C662.958 11.5483 662.682 11.2724 662.329 11.0735C661.981 10.8697 661.576 10.7678 661.114 10.7678C660.632 10.7678 660.204 10.8796 659.831 11.1033C659.463 11.3221 659.175 11.6179 658.966 11.9908C658.757 12.3587 658.65 12.7688 658.646 13.2212V15.093C658.646 15.6598 658.75 16.1495 658.959 16.5621C659.173 16.9748 659.473 17.293 659.861 17.5167C660.249 17.7404 660.709 17.8523 661.241 17.8523C661.594 17.8523 661.917 17.8026 662.21 17.7031C662.503 17.6037 662.755 17.4545 662.963 17.2557C663.172 17.0568 663.331 16.8132 663.441 16.5249L666.379 16.7188C666.23 17.4247 665.924 18.0412 665.462 18.5682C665.004 19.0902 664.413 19.4979 663.687 19.7912C662.966 20.0795 662.133 20.2237 661.188 20.2237Z" fill="white"/>
</g>
<defs>
<linearGradient id="paint0_linear_0_1" x1="450" y1="184.16" x2="802.59" y2="184.16" gradientUnits="userSpaceOnUse">
<stop stop-color="#67B8FF"/>
<stop offset="0.504808" stop-color="#0069C4"/>
<stop offset="1" stop-color="#67B8FF"/>
</linearGradient>
<linearGradient id="paint1_linear_0_1" x1="640.053" y1="41.9456" x2="640.053" y2="83.4165" gradientUnits="userSpaceOnUse">
<stop stop-color="#9ECDFF"/>
<stop offset="1" stop-color="#3F9DFF"/>
</linearGradient>
<clipPath id="clip0_0_1">
<rect width="1280" height="211" fill="white"/>
</clipPath>
</defs>
</svg>
